<svg xmlns="http://www.w3.org/2000/svg" xmlns:xlink="http://www.w3.org/1999/xlink" viewBox="0 0 52 66" fill="#fff" fill-rule="evenodd" stroke="#000" stroke-linecap="round" stroke-linejoin="round"><use xlink:href="#A" x=".5" y=".5"/><symbol id="A" overflow="visible"><g stroke="none" fill="#509ee3" fill-rule="nonzero"><path d="M0 16.363c0-2.158 1.71-3.896 3.835-3.896s3.835 1.738 3.835 3.896-1.71 3.896-3.835 3.896S0 18.521 0 16.363zm0 10.909c0-2.158 1.71-3.896 3.835-3.896s3.835 1.738 3.835 3.896-1.71 3.896-3.835 3.896S0 29.43 0 27.272z"/><use xlink:href="#C" opacity=".2"/><use xlink:href="#C" y="11.015"/><use xlink:href="#C" x="10.737" opacity=".2"/><use xlink:href="#C" x="10.737" y="-12.467" opacity=".2"/><use xlink:href="#C" x="10.737" y="11.015" opacity=".2"/><use xlink:href="#C" x="21.474" opacity=".2"/><use xlink:href="#C" x="32.211"/><use xlink:href="#C" x="21.474" y="11.015"/><use xlink:href="#C" x="32.211" y="11.015"/><path d="M0 38.181c0-2.158 1.71-3.896 3.835-3.896s3.835 1.738 3.835 3.896-1.71 3.896-3.835 3.896S0 40.339 0 38.181z"/><use xlink:href="#C" y="21.924" opacity=".2"/><use xlink:href="#C" x="10.737" y="21.924"/><use xlink:href="#C" x="21.474" y="21.924" opacity=".2"/><use xlink:href="#C" x="32.211" y="21.924"/><path d="M0 49.089c0-2.158 1.71-3.896 3.835-3.896s3.835 1.738 3.835 3.896-1.71 3.896-3.835 3.896S0 51.247 0 49.089z"/><use xlink:href="#C" y="32.832" opacity=".2"/><use xlink:href="#C" x="10.737" y="32.832" opacity=".2"/><path d="M21.474 60.104c0-2.158 1.71-3.896 3.835-3.896s3.835 1.738 3.835 3.896S27.433 64 25.309 64s-3.835-1.738-3.835-3.896z" opacity=".2"/><use xlink:href="#C" x="21.474" y="32.832" opacity=".2"/><use xlink:href="#C" x="32.211" y="32.832"/></g></symbol><defs ><path id="C" d="M10.737 16.363c0-2.158 1.71-3.896 3.835-3.896s3.835 1.738 3.835 3.896-1.71 3.896-3.835 3.896-3.835-1.738-3.835-3.896z"/></defs></svg>