<?xml version="1.0" encoding="utf-8"?>
<!-- Generator: Adobe Illustrator 22.1.0, SVG Export Plug-In . SVG Version: 6.00 Build 0)  -->
<svg version="1.1" id="Layer_1" xmlns="http://www.w3.org/2000/svg" xmlns:xlink="http://www.w3.org/1999/xlink" x="0px" y="0px"
	 viewBox="0 0 1024 1024" style="enable-background:new 0 0 1024 1024;" xml:space="preserve">
<style type="text/css">
	.st0{fill:url(#SVGID_1_);}
	.st1{fill-rule:evenodd;clip-rule:evenodd;fill:#F5EA14;}
	.st2{fill:url(#SVGID_2_);}
	.st3{fill:url(#SVGID_3_);}
	.st4{fill:url(#SVGID_4_);}
	.st5{fill:url(#SVGID_5_);}
	.st6{fill:url(#SVGID_6_);}
	.st7{fill:url(#SVGID_7_);}
	.st8{fill:url(#SVGID_8_);}
	.st9{fill:url(#SVGID_9_);}
	.st10{fill:url(#SVGID_10_);}
	.st11{fill:url(#SVGID_11_);}
	.st12{fill:url(#SVGID_12_);}
	.st13{fill:url(#SVGID_13_);}
	.st14{fill:#FFFFFF;}
	.st15{fill:#E3A82A;}
	.st16{fill:#224176;}
	.st17{display:none;fill:none;stroke:#000000;stroke-width:1.1471;stroke-miterlimit:10;}
</style>
<g>
	<g>
		
			<radialGradient id="SVGID_1_" cx="484.1774" cy="366.1722" r="628.3424" fx="328.4768" fy="308.9706" gradientUnits="userSpaceOnUse">
			<stop  offset="0" style="stop-color:#29A9E1"/>
			<stop  offset="0.1826" style="stop-color:#278AC1"/>
			<stop  offset="0.4085" style="stop-color:#256AA0"/>
			<stop  offset="0.6255" style="stop-color:#235389"/>
			<stop  offset="0.8275" style="stop-color:#22467B"/>
			<stop  offset="0.9999" style="stop-color:#224176"/>
		</radialGradient>
		<polygon class="st0" points="723.1,0 298.9,0 0.1,300.9 0.1,725.7 298.4,1024 724.8,1024 1024.1,725.6 1024.1,301.2 		"/>
	</g>
	<path class="st1" d="M658.6,312.7c-0.4-1.3,4.9-11.6,4.9-11.6l-9,32.3l12.9-33.6l7.5-12.4L670,299l-12.9,33.6l28.6-51.5l15.8-22.3
		l-15,24.9l-24.2,40.8l34.7-52.8l12.7-18.4l-9.2,15.9l-35.6,54.5l20.6-25.3l-19.7,27.9l20.5-20.9l-11.8,12.4l-15.3,19.3l4.8-3
		l42.2-29.3c0,0,1.8-7.8,1-10.4c-0.8-2.6,2.3-10.8,2.3-10.8l-1.1,19l23.9-14.9l-24.4,17.9l-1.3,4.7l-7.4,8.1l2.6-0.8l-9.2,7.2
		l50.8-24.9l-11.8,8.1l-71.2,32.9l19.1-7.6l65.5-28.2l-31.3,14.3l-51.7,22.3l16-3.7l28.6-9.2l-5.7,4.7l29-7.9l20.8-6.7l-15.2,6.3
		l-67.6,17.4l12.5-1.2l43.8-11.2l8.6,0.1l-16,3.7c0,0-22.5,5.8-23.8,6.2c-1.3,0.4-19.5,6.3-19.5,6.3l53.6-7.2l8.6,0.1l-19,3.2
		l-26.4,2.7l-20.3,3.7l54.4-0.3l0.4,1.3l-54,1.6l14.7,1l0.4,1.3l28.9,5.1l6.9,3.5l-18.5-4.1c0,0-28.9-5.1-30.6-5.9
		c-1.7-0.9,8.2,3.1,8.2,3.1l44.4,8.7l13.4,1.4l17.3,0.2c0,0-6.9,0.8-8.2,1.2c-1.3,0.4,6.9,3.5,6.9,3.5s-9.5-2.7-11.2-3.6
		s-9.9,0.3-9.9,0.3l-33.2-5.1l-25-6.3l-8.2-1l27.1,12.8l36.1,18.5l19.4,6.7l-17.2-4.5l-18.5-8.4l-51.1-25.2l0.4,1.3l47.2,30.8
		l0.4,1.3l-39.5-24.6l-9-5.7l13.7,11.4l-1.3,0.4l-6-5.2c0,0-5.6-3.9-7.3-4.8c-1.7-0.9-4.7-5.7-4.7-5.7s-5.2,1.7-7.8,2.5
		c-2.6,0.8-10.4,3.3-16.9,5.4c-6.5,2.1-12.5,1.2-13.8,1.6c-1.3,0.4-6.5,2.1-6.5,2.1s-3.4-1.8-4.3-4.4c-0.8-2.6-0.4-5.6,0.5-7.3
		c0.9-1.7,10-9,20-13.6c10-4.6,24.7-7.9,24.7-7.9S659,314,658.6,312.7z"/>
	<path class="st1" d="M795,293c-0.7-0.7-0.9-9.1-0.9-9.1l5.3,23.8l-3.2-25.9l0.5-10.5l0.9,9.1l3.2,25.9l0.7-42.9l2.5-19.7l-1.1,21.1
		l-1.5,34.5l4.2-45.7l1.8-16.2l-0.5,13.4l-4.2,47.2l4.5-23.3l-3.1,24.6l6-20.5l-3.3,12l-3.2,17.6l2.1-3.5l17-33.3c0,0-1.5-5.6-2.9-7
		c-1.4-1.4-2.2-7.7-2.2-7.7l5.8,12.6l10.3-17.7l-9.5,19.8l0.8,3.5l-2,7.8l1.4-1.4l-3.4,7.8l24.1-33.4l-4.8,9.2l-34.4,45.5l9.7-11.4
		l32.4-40.6l-15.1,19.9l-25.5,32l9-7.9l15.2-15.7l-2,5l15.9-15l11.1-11.4l-7.6,9.3l-37.4,34.3l7.6-5l24.2-22.2l5.6-2.9l-9,7.9
		c0,0-12.5,11.4-13.2,12.2c-0.7,0.7-10.4,10.7-10.4,10.7l32-23l5.6-2.9l-11.1,8.6l-16,10.8l-11.8,9.3l34.8-18.8l0.7,0.7l-34.1,19.5
		l9.8-4.4l0.7,0.7l20.3-6.7l5.6-0.1l-13.3,3.7c0,0-20.3,6.7-21.7,6.7c-1.4,0,6.3-0.8,6.3-0.8l31.5-9.6l9.1-3.7l11.1-5.8
		c0,0-4.2,2.9-4.9,3.6s5.6-0.1,5.6-0.1s-7,1.5-8.4,1.5s-6.3,3.6-6.3,3.6l-23.1,8.1l-18.2,4.5l-5.6,2.2l21.8-1.1l29.5-0.5l14.7-2.3
		l-12.6,3l-14.7,0.9l-41.4,1.4l0.7,0.7l40.8,3.6l0.7,0.7l-33.8-2.3l-7.7-0.6l12.7,2.6l-0.7,0.7l-5.6-1.3c0,0-4.9-0.6-6.3-0.6
		s-5-2-5-2s-2.8,2.9-4.1,4.3s-5.5,5.7-9,9.3c-3.5,3.6-7.6,5-8.3,5.8s-3.5,3.6-3.5,3.6s-2.8,0-4.2-1.3c-1.4-1.4-2.2-3.5-2.2-4.9
		c0-1.4,3.4-9.2,8.2-15.6c4.8-6.4,13.1-13.6,13.1-13.6S795.7,293.7,795,293z"/>
	<path class="st1" d="M748.2,175.9c-0.7-0.4-2-7.1-2-7.1l7.7,18.1l-6.4-20.1l-1.1-8.4l2,7.1l6.4,20.1l-5.8-34.1l-0.9-16l2.3,16.9
		l3.9,27.5l-3.4-36.8l-0.9-13.1l1.6,10.7l3.7,37.9l0.2-19.1l1.2,20l1.7-17.1l-0.9,10l0,14.4l1.1-3.1l8.6-28.9c0,0-2-4.2-3.3-5.1
		s-2.9-5.8-2.9-5.8l6.5,9.1l5.5-15.6l-4.6,17.1l1.1,2.7l-0.4,6.4l0.9-1.3l-1.5,6.7l14.1-30l-2.4,8l-20.5,41.1l6-10.5l19.6-36.9
		l-9,18l-15.4,29.1l6-7.6l9.7-14.7l-0.9,4.2l10.4-14.2l7.1-10.7l-4.6,8.5l-24.5,32.7l5.3-5.1l15.9-21.1l4-3.1l-6,7.6
		c0,0-8.2,10.9-8.6,11.6c-0.4,0.7-6.6,10-6.6,10l21.9-22.9l4-3.1l-7.5,8.5l-11.1,10.9l-8,9.1l24.8-20.1l0.7,0.4l-24.1,20.5l7.1-4.9
		l0.7,0.4l15.1-8.3l4.4-0.9l-10,4.9c0,0-15.1,8.3-16.2,8.5c-1.1,0.2,4.9-1.6,4.9-1.6l23.5-12.3l6.6-4.2l8-6.2c0,0-2.9,2.9-3.3,3.6
		c-0.4,0.7,4.4-0.9,4.4-0.9s-5.3,2.2-6.4,2.5c-1.1,0.2-4.4,3.8-4.4,3.8l-17.1,9.8l-13.7,6.3l-4.1,2.6l17.1-4l23.3-4.7l11.3-4
		l-9.5,4.2l-11.5,2.9l-32.6,7.2l0.7,0.4l32.8-3.2l0.7,0.4l-27.1,3.2l-6.2,0.7l10.4,0.2l-0.4,0.7l-4.7-0.2c0,0-4,0.2-5.1,0.5
		c-1.1,0.2-4.2-0.9-4.2-0.9s-1.8,2.7-2.7,4c-0.9,1.3-3.5,5.3-5.7,8.7c-2.2,3.3-5.3,5.1-5.8,5.8c-0.4,0.7-2.2,3.3-2.2,3.3
		s-2.2,0.5-3.6-0.4c-1.3-0.9-2.2-2.4-2.5-3.5c-0.2-1.1,1.3-7.8,4.2-13.6s8.4-12.7,8.4-12.7S748.9,176.3,748.2,175.9z"/>
	<linearGradient id="SVGID_2_" gradientUnits="userSpaceOnUse" x1="471.6721" y1="135.1092" x2="-21.9892" y2="778.8079">
		<stop  offset="1.257676e-04" style="stop-color:#F5EA14"/>
		<stop  offset="0.3548" style="stop-color:#F5C319"/>
		<stop  offset="0.8255" style="stop-color:#F69220"/>
	</linearGradient>
	<path class="st2" d="M598.3,287.2c-20.3,10.7-40.5,21.4-62.5,33c0.2-8.8,0.3-13.1,0.4-18.9c-5.2,2.6-8.6,4.3-11.8,5.9
		c0.6-5.8,1.2-11.1,1.8-16.4c-1-0.2-2-0.4-3-0.5c-5.9,7.1-11.7,14.2-19.1,23.2c-7.1-17.7,5.5-23.7,12.2-31.1
		c14.6-16.2,15.2-15.7,11.6-28.9c-13.9,12-27.3,23.6-39.5,34.1c-4.3-5.5-7.6-9.8-12.5-16.1c3-5.1,6.8-11.7,10.6-18.3
		c14.7-25.7,40.6-46.5,34.9-81.9c-17.5,1-15.7,22.7-28.8,29.1c-0.3-4.3-0.5-7.8-0.9-13.2c-7.1,8.8-12.7,15.9-20.4,25.4
		c2.2-13.4,4-23.5,5.4-33.6c1.4-9.7,2.3-19.4,3.4-29.2c-1.7-0.2-3.3-0.4-5-0.6c-5.1,14.3-9.2,29.2-15.6,42.9
		c-6.8,14.4-15.8,27.8-24.4,42.6c-4.1-3.6-6.4-5.6-8.8-7.8c-3.8,4.6-6.9,8.5-10.1,12.4c-1-0.5-2-0.9-3-1.4c4.8-12,9.6-24,14.4-36
		c-0.7-0.5-1.4-0.9-2.1-1.4c-7,10-14,20-21,30c-1.5-0.6-2.9-1.1-4.4-1.7c1.1-5.3,1.6-10.8,3.6-15.8c9.7-25,19.9-49.7,29.7-74.7
		c1-2.5,0-5.9-0.2-12c-11.4,19.6-20.9,35.8-30.3,52.2c-8.5,14.8-14,32.1-30.5,36.6c-5.3-4.2-9.3-7.5-14.1-11.3
		c10.9-30.8,22.2-63,33.5-95.1c-1.7-0.8-3.5-1.5-5.2-2.3c-23.2,25.3-20,65.1-46.3,88.8c11.9-33.3,23.7-66.6,35.6-99.9
		c-1.5-0.5-2.9-1.1-4.4-1.6c-17.4,29.9-34.8,59.8-52.2,89.7c-1.3-0.1-2.6-0.1-3.8-0.2c6.3-27.4,14-54.9-4.3-83.8
		c3.9,33.8-24.7,47-40.2,69.8c-20.5-9.5-28,6-34.2,23.7c-1-0.9-2.1-1.7-3.1-2.6c0.2-14.6,0.4-29.3,0.5-41.7
		c-8,13.7-16.1,27.8-24.3,41.8c-0.9-1.3-1.9-2.5-2.8-3.8c-4.7,1.2-9.5,2.2-14.1,3.7c-2.2,0.7-4.6,4-6.1,3.5
		c-19.7-5.9-12.9,6.5-11.5,15.9c1.2,8.5,1.6,17,2.3,25.6c-1.8,0.4-3.6,0.8-5.3,1.3c-3.4-5.8-6.8-11.6-10.2-17.3
		c-11.1,3.1-15.5,8.3-10.6,19.4c9.4,21.6,18.1,43.5,27,65.3c1,2.5,0.8,5.6,1.2,8.3c-7.5,0.2-13.9,0.4-18.8,0.5
		c23.7,17.5,47,34.6,71,52.3c-6.1,6-9.2,9-13.6,13.3c15.1,3.1,12.1,12.9,10.8,22.2c-2.4,16.4-7.8,30-27.2,32.1
		c-14.3-13.2,6.1-24.1,3.2-40.6c-8.4,13-14.8,22.9-23,35.4c-23.9-42.8-36.2-87.4-62.5-124.7c-0.6,3.7,0.7,6.4,1.9,9.1
		c17.8,40.7,35.5,81.5,53.5,122c3.7,8.2,1.5,13-6.6,15.2c-6.9,1.9-14.7,4.4-13.8-9.9c-6.1,12.8-10.9,6.9-15.4,1.3
		c-33.3-41.3-66.6-82.7-99.9-124c-2.5-3.1-14.9-20.8-22.9-31.9l-4.6,4.7c9.2,15.2,24.2,39.6,29.5,46.2
		c28.7,35.1,57.9,69.8,87.4,104.3c6.7,7.8,10.2,13.8,0.5,20.9c-8.9-7.2-16.9-14.6-25.8-20.6c-39-26.5-73.4-57.2-103.1-92.6v12.9
		c5.1,6.1,10.4,12,15.9,17.6c27.3,27.8,59,51.3,88.7,76.7c14.7,12.5,15.3,21.3,1.7,38.8c-0.3-10.3-0.5-19.3-0.8-28.3
		c-1.1,0-2.2,0-3.3,0c-0.9,11.9-1.9,23.7-3,37.5C69,489.4,58.4,485.4,30,473c-0.5,1.2-1,2.4-1.5,3.6c5.5,2.7,11,5.4,16.6,8.1
		c20.5,9.9,23.1,11.1,43.3,21.4c2.4,1.2,3,5.8,4.5,8.9c-3.1,0.2-6.3,0.5-9.4,0.8c-0.2,2.4-0.5,5.4-0.8,8.5c-1.7,0.3-3.5,0.5-5.2,0.8
		c0.6-4.3,1.1-8.5,1.7-12.8c-1.4,0.2-2.7,0.4-4.1,0.6c-0.6,4.6-1.1,9.2-2,16.4c-16.2-9.4-30.7-17.8-45.2-26.3
		c-0.9,1.5-1.8,3.1-2.6,4.6c15.5,9,30.7,18.6,46.6,26.8c10.5,5.5,10.7,14.1,10.1,23.5c-0.5,8.6-4.6,9.8-10.9,4.4
		c-5.5-4.6-10.8-9.5-16.2-14.2c-1,1.1-2.1,2.2-3.1,3.3c8,8.3,15.3,17.7,24.4,24.6c9.6,7.3,10,14.9,7.8,25.5
		c-3.9,18.6-7.4,37.4-8.6,56.3c-0.9,14.5-5.1,26.6-12.8,38.8c-11.8,18.8-23,38.1-34.1,57.4l36.4,36.4c17-27.1,38.1-50.3,68.5-64.8
		c11.6-5.5,22.2-13.2,32.6-20.8c10.6-7.7,20.4-16.4,30.6-24.7c-0.6-0.7-1.1-1.5-1.7-2.2c-31.7,17.8-63.3,35.5-95,53.3
		c-0.9-1.2-1.8-2.5-2.6-3.7c7.5-12.9,14.7-26.1,22.6-38.8c12.1-19.4,24.9-38.3,52.8-31.8c1.4,0.3,3.1-0.1,4.6-0.2
		c26.8-1.1,53.6-2.3,76.3,16.2c2.3,1.9,6.1,1.8,12.8,3.6c-4.6-10.9-8.8-18.6-10.8-26.8c-1.3-5.4-1.4-13.2,1.7-17.1
		c2.2-2.9,10.6-2.4,15.7-1.1c5.3,1.3,9.9,5.3,14.8,8.1c23.3,13.5,46.5,27.1,69.8,40.6c0.2-0.2,0.4-0.3,0.6-0.5
		c-28.8-21.1-57.7-42.1-87.8-64.1c12.3-17.7,20.7,7.9,31.8,0.6c-8.8-12.1-31.4-21.5-8.8-42c42.1,18.5,81,43.8,123.4,62.7
		c50.1,22.9-120.5-73.6-120.5-73.6c9.5-28.3,10.9-30,37.8-27.5c43.2,4.1,85.6-1.1,127.9-8.3c2.4-0.4,4.6-1.7,6.9-2.6
		c-27.5-0.3-54.1,2.9-80.9,3.9c-25,0.9-50.6,3.5-73.6-11.4c-12.9-8.4-14.4-12.8-4.8-27.6c8.3,1.3,16.8,2.5,25.2,3.8
		c0.4-1.3,0.7-2.7,1.1-4c-6.1-3.5-12.1-7-18.2-10.6c0.4-1.3,0.9-2.7,1.3-4c7.2,1.8,14.5,3.6,21.7,5.4c0.5-0.8,1-1.7,1.4-2.5
		c-7.8-5.7-15.7-11.5-24.3-17.8c14.3-11.2,28.1-14.8,43.9-6.8c30.8,15.7,61.8,31.1,92.7,46.6c4.6,2.3,9.3,4.6,13.9,6.9
		c0.9-1.7,1.9-3.3,2.8-5c-14.7-8.6-29.5-17.1-44.2-25.7c1-1.5,2-3,3-4.6c12.8,7.4,25.4,15.2,38.4,22.2c26.7,14.6,30,15.1,38.7,8.8
		c-8.1-8-16.4-16.1-24.7-24.2c0.8-1.1,1.6-2.2,2.4-3.4c11.1-0.1,22.3-0.3,33.4-0.4c0.2-1.5,0.3-3,0.5-4.5
		c-12.2-4.6-24.5-9.2-37.4-14c7.9-14.8,17.9-19.9,31.1-22.5c8.4-1.6,15.9-8.1,22.5-11.6c-5.6-9.9-9.1-16.3-12.7-22.7
		c4-3,7.4-5.6,11.5-8.7c-4.2-4.4-7.5-7.9-10.6-11.3c3.4-7,6.4-13.4,10.9-22.6c-9.3,1.3-16.2,2.2-23.1,3.2
		C534.3,328.5,577.9,322.7,598.3,287.2z"/>
	<g>
		<g>
			<linearGradient id="SVGID_3_" gradientUnits="userSpaceOnUse" x1="909.7397" y1="372.1947" x2="903.7397" y2="1426.1947">
				<stop  offset="1.504407e-02" style="stop-color:#C6E9FA"/>
				<stop  offset="0.4387" style="stop-color:#1C9AD6"/>
				<stop  offset="0.8652" style="stop-color:#0875BB"/>
				<stop  offset="0.9944" style="stop-color:#005B96"/>
			</linearGradient>
			<path class="st3" d="M928.4,397.1c0,0-33.7-27.8-37.1-10.8c-3.4,17,9.5,43.1,9.5,43.1C904.9,412.5,928.4,397.1,928.4,397.1z"/>
		</g>
		<g>
			<linearGradient id="SVGID_4_" gradientUnits="userSpaceOnUse" x1="448.4536" y1="369.5688" x2="442.4536" y2="1423.5688">
				<stop  offset="1.504407e-02" style="stop-color:#C6E9FA"/>
				<stop  offset="0.4387" style="stop-color:#1C9AD6"/>
				<stop  offset="0.8652" style="stop-color:#0875BB"/>
				<stop  offset="0.9944" style="stop-color:#005B96"/>
			</linearGradient>
			<path class="st4" d="M494.1,746.1c-6.2-2.1-12.9-2.9-19.3-4.2c-11.8-1.2-23,1.1-34.5,2.6c-14.2,1.9-28.8-0.2-43.3-0.4
				c-2.7,0-5.5,0.5-8.2,0.8c0.9,2.8,1.2,6.1,2.7,8.5c13.9,20.9,34.5,29.2,58.7,29c12.1-0.1,24.3-1.5,36.2-3.5
				c6.6-1,12.2-5,15.5-11.4C506.3,758.9,503.2,749.3,494.1,746.1z"/>
		</g>
		<g>
			<linearGradient id="SVGID_5_" gradientUnits="userSpaceOnUse" x1="451.7896" y1="369.5878" x2="445.7896" y2="1423.5878">
				<stop  offset="1.504407e-02" style="stop-color:#C6E9FA"/>
				<stop  offset="0.4387" style="stop-color:#1C9AD6"/>
				<stop  offset="0.8652" style="stop-color:#0875BB"/>
				<stop  offset="0.9944" style="stop-color:#005B96"/>
			</linearGradient>
			<path class="st5" d="M507.2,709.2c-3.7-9.1-11.6-13.4-19.9-16.7c-17.1-6.6-34.8-8.9-53.1-6.6c-14.7,1.8-27.2,8.1-38.3,17.6
				c-0.6,0.5-1.4,1.1-1.7,1.8c-1.2,2.5-2.8,5-2.9,7.6c0,0.8,4,1.9,6.1,2.8c0.1-0.5,0.2-1,0.4-1.5c15.7,2.2,32.2,2.1,47,7.2
				c12.5,4.3,24.8,7.5,37.7,9c3.9,0.4,7.9,0.6,11.8,0.3C505.1,729.9,511.4,719.4,507.2,709.2z"/>
		</g>
		<g>
			<linearGradient id="SVGID_6_" gradientUnits="userSpaceOnUse" x1="532.3398" y1="370.0463" x2="526.3398" y2="1424.0463">
				<stop  offset="1.504407e-02" style="stop-color:#C6E9FA"/>
				<stop  offset="0.4387" style="stop-color:#1C9AD6"/>
				<stop  offset="0.8652" style="stop-color:#0875BB"/>
				<stop  offset="0.9944" style="stop-color:#005B96"/>
			</linearGradient>
			<path class="st6" d="M525.3,677.3c-3-1.3-6.4-1.6-10.7-2.5c3.9,9.7,6.7,17.9,10.5,25.7c1.5,3.1,4.7,6,7.8,7.6
				c3.2,1.6,9,3.3,10.6,1.7c2.4-2.3,3.3-7.6,2.6-11.2C543.9,687.2,535.1,681.6,525.3,677.3z"/>
		</g>
		<g>
			<linearGradient id="SVGID_7_" gradientUnits="userSpaceOnUse" x1="526.0235" y1="370.0104" x2="520.0235" y2="1424.0104">
				<stop  offset="1.504407e-02" style="stop-color:#C6E9FA"/>
				<stop  offset="0.4387" style="stop-color:#1C9AD6"/>
				<stop  offset="0.8652" style="stop-color:#0875BB"/>
				<stop  offset="0.9944" style="stop-color:#005B96"/>
			</linearGradient>
			<path class="st7" d="M536.4,773.4c-2.3-0.9-6.9,0.1-8.6,2c-7.3,8.1-13.9,16.8-21.8,26.4c2.7,0.4,4.9,1.3,6.6,0.8
				c7.5-2.5,15.6-4.4,22.1-8.6c3.6-2.3,5.5-8.4,6.5-13.2C541.7,778.7,538.7,774.4,536.4,773.4z"/>
		</g>
		<g>
			<linearGradient id="SVGID_8_" gradientUnits="userSpaceOnUse" x1="318.9263" y1="368.8315" x2="312.9263" y2="1422.8314">
				<stop  offset="1.504407e-02" style="stop-color:#C6E9FA"/>
				<stop  offset="0.4387" style="stop-color:#1C9AD6"/>
				<stop  offset="0.8652" style="stop-color:#0875BB"/>
				<stop  offset="0.9944" style="stop-color:#005B96"/>
			</linearGradient>
			<path class="st8" d="M358.4,875.6c-6.6,0.1-13.1,1.7-19.6,2.6c-11.5,2.9-21.3,8.8-31.6,14.1c-12.7,6.6-27.2,9.6-40.9,14.3
				c-2.6,0.9-5,2.3-7.5,3.5c1.8,2.4,3.1,5.3,5.4,7c20.2,15,42.3,15.9,65,7.5c11.4-4.2,22.3-9.6,33-15.5c5.8-3.2,9.8-8.9,10.7-16
				C374.2,883.5,368,875.5,358.4,875.6z"/>
		</g>
		<g>
			<linearGradient id="SVGID_9_" gradientUnits="userSpaceOnUse" x1="312.1207" y1="368.7927" x2="306.1207" y2="1422.7927">
				<stop  offset="1.504407e-02" style="stop-color:#C6E9FA"/>
				<stop  offset="0.4387" style="stop-color:#1C9AD6"/>
				<stop  offset="0.8652" style="stop-color:#0875BB"/>
				<stop  offset="0.9944" style="stop-color:#005B96"/>
			</linearGradient>
			<path class="st9" d="M259.9,877.9c15.5-3.3,31-8.9,46.6-9.1c13.2-0.2,25.9-1.3,38.5-4.3c3.8-0.9,7.6-2.1,11.2-3.7
				c10.1-4.4,12.4-16.4,5-24.7c-6.6-7.3-15.5-8.7-24.4-8.9c-18.3-0.5-35.7,3.4-52.2,11.7c-13.2,6.7-22.9,16.9-30.1,29.6
				c-0.4,0.7-1,1.5-1,2.2c-0.3,2.7-0.9,5.6-0.2,8.1c0.2,0.8,4.4,0.4,6.7,0.6C260,878.9,260,878.4,259.9,877.9z"/>
		</g>
		<g>
			<linearGradient id="SVGID_10_" gradientUnits="userSpaceOnUse" x1="379.1066" y1="369.174" x2="373.1066" y2="1423.1741">
				<stop  offset="1.504407e-02" style="stop-color:#C6E9FA"/>
				<stop  offset="0.4387" style="stop-color:#1C9AD6"/>
				<stop  offset="0.8652" style="stop-color:#0875BB"/>
				<stop  offset="0.9944" style="stop-color:#005B96"/>
			</linearGradient>
			<path class="st10" d="M395.7,824.5c1.4-3,0.5-8.3-1.3-11.4c-5.9-9.9-16.2-12.2-26.8-13c-3.2-0.2-6.6,0.7-10.9,1.2
				c6.9,7.8,12.4,14.6,18.6,20.6c2.5,2.4,6.4,4.1,9.9,4.5C388.8,826.8,394.8,826.4,395.7,824.5z"/>
		</g>
		<g>
			<linearGradient id="SVGID_11_" gradientUnits="userSpaceOnUse" x1="404.6994" y1="369.3197" x2="398.6994" y2="1423.3197">
				<stop  offset="1.504407e-02" style="stop-color:#C6E9FA"/>
				<stop  offset="0.4387" style="stop-color:#1C9AD6"/>
				<stop  offset="0.8652" style="stop-color:#0875BB"/>
				<stop  offset="0.9944" style="stop-color:#005B96"/>
			</linearGradient>
			<path class="st11" d="M407.4,887c-2.5-0.1-6.5,2.4-7.5,4.8c-4.2,10.1-7.5,20.5-11.6,32.2c2.7-0.6,5.1-0.4,6.5-1.5
				c6.2-4.9,13.2-9.4,17.9-15.6c2.6-3.4,2.3-9.8,1.7-14.6C414.1,890.2,409.9,887.1,407.4,887z"/>
		</g>
		<g>
			<linearGradient id="SVGID_12_" gradientUnits="userSpaceOnUse" x1="817.4083" y1="371.6691" x2="811.4083" y2="1425.6691">
				<stop  offset="1.504407e-02" style="stop-color:#C6E9FA"/>
				<stop  offset="0.4387" style="stop-color:#1C9AD6"/>
				<stop  offset="0.8652" style="stop-color:#0875BB"/>
				<stop  offset="0.9944" style="stop-color:#005B96"/>
			</linearGradient>
			<path class="st12" d="M1024,439.4c-15.9-0.4-32.1,0.8-47,5.4c0,0,21.7-68.1,3.1-63.8c-18.6,4.3-61.1,29.2-71.3,61.3
				c0,0-15.6-4.4-28.7,20.8c0,0-2.2,12.8-31.3,13.7c0,0-17.5,0.9-32.7,13.6c-15.2,12.7-68.8,25.3-113.1,20.1c0,0-28.5-9.8-48.3-2
				c0,0-16.5,4.6-20.2-6.7c-3.8-11.3-9.7-16.1-17.1,4.3c-7.4,20.4-14.2,45.1-5.5,47.4c13,3.4,16.7,10,16.7,10s38.5,47.8,65.2,62.3
				c26.7,14.5,22.7,56.4,95.7,79.2c0,0,54.7,20.3,53.7,51.5c-0.6,17.8,28.5,58,69.9,79.7l111-110.7L1024,439.4z M760,542.9
				c0,0,0.1,40.7-35.3,62.1c0,0-32.8-1.3-51.7-10.6c0,0,53.1-18.3,86-72.4C759,522,760.6,534.2,760,542.9z M883.6,542.3
				c-2.2,15.2-16.3,25.7-31.5,23.5c-7.6-1.1-14-5.2-18.3-10.9c-0.1,0-0.2,0.1-0.4,0.1c-3.9,1.4-7.9,2.6-12,3.4
				c-4.1,0.8-8.2,1.3-12.4,1.1c7.3-4,14.2-7.9,20.9-12c0,0,0,0,0,0c0.1,0,0.1-0.1,0.2-0.1c6.6-4,13-8.2,19.1-12.8
				c6.1-4.6,12-9.6,17.5-15c5.6-5.4,10.6-11.4,16.1-17.7c-0.7,4.1-1.9,8.2-3.6,12c-0.8,2-1.8,3.8-2.8,5.7c-0.5,0.9-1.1,1.8-1.6,2.7
				c-0.5,0.9-1.1,1.8-1.7,2.7c-1.5,2.2-3.1,4.3-4.9,6.3l12.7-5.4C883.4,530.7,884.5,536.4,883.6,542.3z"/>
		</g>
		<g>
			
				<linearGradient id="SVGID_13_" gradientUnits="userSpaceOnUse" x1="855.4783" y1="371.8955" x2="849.4783" y2="1425.8955" gradientTransform="matrix(0.9891 -0.1473 0.1473 0.9891 -71.3359 131.8155)">
				<stop  offset="1.504407e-02" style="stop-color:#C6E9FA"/>
				<stop  offset="0.4387" style="stop-color:#1C9AD6"/>
				<stop  offset="0.8652" style="stop-color:#0875BB"/>
				<stop  offset="0.9944" style="stop-color:#005B96"/>
			</linearGradient>
			<path class="st13" d="M851,546.7l-5.1,3.7c0.2,0.3,0.3,0.5,0.5,0.7c1.9,2.4,4.8,3.8,8.1,3.6c5.1-0.4,8.9-4.9,8.5-10
				c-0.2-2-0.9-3.8-2.1-5.2L851,546.7z"/>
		</g>
	</g>
	<g>
		<g>
			<path class="st14" d="M935.6,1024c20.5-32.4,32.3-71.8,32.3-113c0-116.1-94.1-210.3-210.3-210.3S547.4,794.9,547.4,911
				c0,41.2,11.8,80.6,32.3,113H935.6z"/>
		</g>
		<g>
			<g>
				<path class="st14" d="M653.8,925.9c46,0,109.5,25.9,155.6,25.9c32.9,0,65-8.8,83.3-21.7c1.3-7.6,2-15.4,2-23.4
					c0-77.2-62.6-139.8-139.8-139.8c-77.2,0-139.8,62.6-139.8,139.8c0,7.9,0.7,15.6,1.9,23.1C622,928.8,639.1,925.9,653.8,925.9z"/>
				<g>
					<polygon class="st15" points="845.2,874.3 850.7,876.6 863,868.1 					"/>
					<path class="st15" d="M639.2,864.8l-14.5-5.1l0.7-1.8l16.4,5.5l0.1,0l2.2-1.2l0.9-0.5L627,854l0.8-1.9l39.8,16.1l1.3-0.5
						l-39.5-19.3l0.9-1.8l41.9,19.5l0.6-0.3l-40.6-23l0.8-1.7l58.6,31.9c0.5-0.9,1.5-2.5,2-3.4c-22.3-21-43.8-36.7-43.8-36.7
						s22.1,14.8,49.4,28.6c0.9-1.1,1.6-2,2.6-3.1l-50-44l1.3-1.4l40.4,34.4l-37.4-37.4l1.4-1.4l42,40.6l-39.1-43.4l1.5-1.3L698,843
						l-33-41.5l1.4-1.3l42.3,51.4c1.1-0.9,2-1.7,3.1-2.5c-12.8-27.7-26.7-50.2-26.7-50.2s14.9,21.9,34.9,44.8c1.2-0.7,2.5-1.4,3.7-2
						l-0.2-0.1l-29.6-59.1l1.8-0.8l24.5,47l-20.6-48.7l1.8-0.8l23.7,53.3l-20-54.9l1.9-0.7l19,49.4l-15-50.9l1.8-0.7l19.8,63.1
						l0,0.2l0,0c1.3-0.4,2.7-0.8,4-1.2c-1.5-30.3-6-56.2-6-56.2s5.6,25.7,15.5,54.3c1.4-0.2,2.8-0.3,4.2-0.4l0-0.1h0.2l-0.1-0.1
						l-5.3-65.9l1.9-0.1l5.1,52.8l-0.9-52.9l2-0.1l2,58.4l2-58.4l2,0.1l-0.9,52.9l5.1-52.8l1.9,0.1l-5.3,65.9l-0.1,0.1h0l0,0h0.1
						c1.4,0.1,2.7,0.2,4.1,0.4c9.9-28.6,15.5-54.3,15.5-54.3s-4.5,25.8-6,56.1c1.4,0.4,2.7,0.8,4,1.2l19.7-62.9l1.8,0.7l-15,50.9
						l19-49.4l1.9,0.7l-20,54.9l23.7-53.3l1.8,0.8L790,828.9l24.5-47l1.8,0.8l-29.5,58.9l0.1,0c1.2,0.6,2.4,1.2,3.6,1.9
						c20-22.8,34.7-44.6,34.7-44.6s-13.9,22.3-26.6,49.9c1.1,0.9,2.3,1.7,3.3,2.7l41.8-50.9l1.4,1.3l-33,41.5l36.1-38.7l1.5,1.3
						l-39.1,43.4l42-40.6l1.4,1.5l-37.4,37.4l40.4-34.4l1.3,1.4L809,858.3l0,0c0.9,1,1.7,2,2.5,3c27.1-13.7,49-28.4,49-28.4
						s-21.3,15.6-43.5,36.4c0.6,1,1.6,2.7,2.1,3.8l57.8-31.5l0.8,1.7l-46.1,26.2l48-22.3l0.9,1.8l-44.7,21.8l0.9,0.3l45.5-18.4
						l0.8,1.9l-42.3,18l0.8,0.3l28.2-9.4l4.2-3l1.4,1.1l9.3-3.1l0.7,1.8l-8,2.8l11.6,8.8l3.7,2.1c-14.9-62.3-70.9-108.6-137.7-108.6
						c-68,0-124.8,47.9-138.5,111.9c0.2-0.1,0.3-0.2,0.5-0.3l1.7-0.8l1-0.5L639.2,864.8z"/>
				</g>
				<path class="st16" d="M615.6,932.8c0,0,20.9-4.2,38.3-4.2c46,0,109.5,25.9,155.6,25.9c33.8,0,66.8-9.3,84.8-22.8
					c1.4-8,2.1-16.2,2.1-24.6c0-11.4-1.4-22.5-3.9-33.1l-19.2-10.7L850.8,879l-15.2-5.9c-5.1,2.6-36.8,23.8-36.8,23.8l-12.2-8.8
					l-13.1-2.6l-17.4-12.7l-20,13.7c0,0-22.3,12.9-23,12.9c-0.8,0-26.9-20.7-26.9-20.7l-12-12.7c-2,1.3-10.2,5-10.2,5l-0.4,0.1
					l-7.9-2.4l-9.6-5.1L616.9,877c-0.2,0.1-0.3,0.2-0.5,0.3c-2.1,9.6-3.1,19.6-3.1,29.8C613.2,915.8,614,924.4,615.6,932.8z"/>
			</g>
		</g>
	</g>
	<path class="st17" d="M781.3,1024.1H241.8C108.3,1024.1-1,914.8-1,781.3V243.7C-1,110.2,108.3,0.9,241.8,0.9h539.5
		c133.5,0,242.8,109.2,242.8,242.8v537.6C1024.1,914.8,914.8,1024.1,781.3,1024.1z"/>
</g>
</svg>
